:FULLY-SPECIFIED
:FORCE-ALL-JOINTS-BE-3DOF
:DEGREES
1121
root 0.434325 15.029 -26.7101 -2.3294 18.5745 2.1096
lfemur -14.7939 3.00863 -18.5546
ltibia 61.8189 -0 0
lfoot -29.6663 22.2786 -0.152341
ltoes -21.0763 0 0
rfemur -50.1012 -6.42844 5.09986
rtibia 39.6186 -0 0
rfoot 24.7982 6.06765 0.557156
rtoes 10.1079 -0 0
lowerback 13.5504 0.181374 -7.66234
upperback -0.799804 -0.782346 2.61254
thorax -8.32975 0.0295885 7.35335
lowerneck -1.59717 -6.37713 -9.70181
upperneck 8.02806 -8.61944 6.29248
head 3.43073 -4.35148 3.12414
lclavicle 4.76057e-14 -2.22871e-15 -7.80771e-31
lhumerus -13.7963 -59.2996 104.253
lradius 109.794 -0 0
lwrist 30.0059 0 0
lhand -28.9997 39.6604 0.0127802
lfingers 7.12502 -0 0
lthumb -2.35133 69.6243 0.0125897
rclavicle 4.76057e-14 -2.22871e-15 -7.80771e-31
rhumerus 11.0589 28.5974 -69.6297
rradius 104.001 -0 0
rwrist -14.4708 0 0
rhand 5.66564 -29.1976 -0.0634365
rfingers 7.12502 -0 0
rthumb 31.0016 -56.5728 -0.0531117
1122
root 0.442835 15.0294 -26.6666 -2.35161 18.8268 2.11488
lfemur -14.7084 2.96318 -18.6671
ltibia 61.8897 -0 0
lfoot -29.8169 22.3208 -0.137604
ltoes -21.1053 0 0
rfemur -50.2215 -6.38424 5.07242
rtibia 39.5239 -0 0
rfoot 24.9808 6.1891 0.503171
rtoes 10.2142 -0 0
lowerback 13.5478 0.166258 -7.69635
upperback -0.798095 -0.807385 2.61727
thorax -8.32567 0.0189524 7.3835
lowerneck -1.57783 -6.43424 -9.75021
upperneck 8.02808 -8.69929 6.33219
head 3.42966 -4.3908 3.14081
lclavicle 4.81365e-14 -2.16487e-15 -7.05356e-31
lhumerus -13.9894 -59.4942 104.546
lradius 109.984 -0 0
lwrist 30.2324 0 0
lhand -28.9776 39.6855 0.0115456
lfingers 7.12502 -0 0
lthumb -2.33004 69.6499 0.0113736
rclavicle 4.81365e-14 -2.16487e-15 -7.05356e-31
rhumerus 11.3547 28.5849 -69.5444
rradius 103.943 -0 0
rwrist -14.1675 0 0
rhand 5.71631 -29.2514 -0.057307
rfingers 7.12502 -0 0
rthumb 31.0501 -56.6199 -0.0479802
1123
root 0.451345 15.0297 -26.6231 -2.37382 19.079 2.12005
lfemur -14.6228 2.91789 -18.7796
ltibia 61.9606 -0 0
lfoot -29.9674 22.3629 -0.122756
ltoes -21.1343 0 0
rfemur -50.3419 -6.3401 5.04489
rtibia 39.4291 -0 0
rfoot 25.1633 6.31038 0.448798
rtoes 10.3204 -0 0
lowerback 13.5452 0.151142 -7.73036
upperback -0.796388 -0.832424 2.622
thorax -8.32159 0.00831405 7.41364
lowerneck -1.55843 -6.49133 -9.79863
upperneck 8.02805 -8.77915 6.3719
head 3.42857 -4.43012 3.15748
lclavicle 4.86673e-14 -2.10103e-15 -6.29349e-31
lhumerus -14.1857 -59.6884 104.843
lradius 110.174 -0 0
lwrist 30.4588 0 0
lhand -28.9556 39.7106 0.0103014
lfingers 7.12502 -0 0
lthumb -2.30875 69.6755 0.0101479
rclavicle 4.86673e-14 -2.10103e-15 -6.29349e-31
rhumerus 11.6504 28.572 -69.4592
rradius 103.885 -0 0
rwrist -13.8642 0 0
rhand 5.76697 -29.3053 -0.05113
rfingers 7.12502 -0 0
rthumb 31.0987 -56.667 -0.0428087
1124
root 0.459856 15.0301 -26.5795 -2.39605 19.3313 2.12513
lfemur -14.5371 2.87278 -18.8922
ltibia 62.0314 -0 0
lfoot -30.118 22.405 -0.107798
ltoes -21.1634 0 0
rfemur -50.4623 -6.29601 5.01728
rtibia 39.3344 -0 0
rfoot 25.3456 6.43148 0.39404
rtoes 10.4266 -0 0
lowerback 13.5427 0.136023 -7.76437
upperback -0.794684 -0.857463 2.62672
thorax -8.31752 -0.00232641 7.44379
lowerneck -1.53899 -6.5484 -9.84707
upperneck 8.02796 -8.85901 6.41162
head 3.42748 -4.46945 3.17415
lclavicle 4.91982e-14 -2.03718e-15 -5.5275e-31
lhumerus -14.3851 -59.882 105.143
lradius 110.365 -0 0
lwrist 30.6853 0 0
lhand -28.9335 39.7357 0.00904757
lfingers 7.12502 -0 0
lthumb -2.28746 69.7012 0.00891277
rclavicle 4.91982e-14 -2.03718e-15 -5.5275e-31
rhumerus 11.9461 28.5588 -69.3741
rradius 103.827 -0 0
rwrist -13.5609 0 0
rhand 5.81763 -29.3592 -0.0449053
rfingers 7.12502 -0 0
rthumb 31.1473 -56.714 -0.0375973
1125
root 0.468366 15.0305 -26.536 -2.41829 19.5836 2.13012
lfemur -14.4514 2.82784 -19.0048
ltibia 62.1022 -0 0
lfoot -30.2685 22.4471 -0.0927288
ltoes -21.1924 0 0
rfemur -50.5827 -6.25199 4.98957
rtibia 39.2396 -0 0
rfoot 25.5278 6.5524 0.338897
rtoes 10.5329 -0 0
lowerback 13.5401 0.120903 -7.79838
upperback -0.792981 -0.882502 2.63145
thorax -8.31345 -0.012969 7.47393
lowerneck -1.51949 -6.60546 -9.89554
upperneck 8.02781 -8.93886 6.45136
head 3.42637 -4.50877 3.19083
lclavicle 4.9729e-14 -1.97334e-15 -4.7556e-31
lhumerus -14.5876 -60.0751 105.446
lradius 110.555 -0 0
lwrist 30.9117 0 0
lhand -28.9115 39.7609 0.00778405
lfingers 7.12502 -0 0
lthumb -2.26617 69.7268 0.00766807
rclavicle 4.9729e-14 -1.97334e-15 -4.7556e-31
rhumerus 12.2417 28.5451 -69.2891
rradius 103.769 -0 0
rwrist -13.2576 0 0
rhand 5.86828 -29.413 -0.038633
rfingers 7.12502 -0 0
rthumb 31.1959 -56.7611 -0.0323459
1126
root 0.476876 15.0308 -26.4925 -2.44054 19.8359 2.13501
lfemur -14.3655 2.78306 -19.1175
ltibia 62.1731 -0 0
lfoot -30.419 22.4891 -0.0775494
ltoes -21.2214 0 0
rfemur -50.7031 -6.20802 4.96177
rtibia 39.1449 -0 0
rfoot 25.7099 6.67315 0.28337
rtoes 10.6391 -0 0
lowerback 13.5376 0.105782 -7.83239
upperback -0.79128 -0.907541 2.63618
thorax -8.30939 -0.0236137 7.50407
lowerneck -1.49995 -6.66251 -9.94404
upperneck 8.02761 -9.01872 6.4911
head 3.42525 -4.54809 3.2075
lclavicle 5.02598e-14 -1.9095e-15 -3.97779e-31
lhumerus -14.7935 -60.2676 105.752
lradius 110.745 -0 0
lwrist 31.1382 0 0
lhand -28.8894 39.786 0.00651086
lfingers 7.12502 -0 0
lthumb -2.24488 69.7524 0.00641386
rclavicle 5.02598e-14 -1.9095e-15 -3.97779e-31
rhumerus 12.5372 28.5311 -69.2042
rradius 103.711 -0 0
rwrist -12.9543 0 0
rhand 5.91893 -29.4669 -0.0323131
rfingers 7.12502 -0 0
rthumb 31.2445 -56.8082 -0.0270547
1127
root 0.485387 15.0312 -26.4489 -2.4628 20.0881 2.1398
lfemur -14.2796 2.73845 -19.2303
ltibia 62.2439 -0 0
lfoot -30.5696 22.5311 -0.0622597
ltoes -21.2505 0 0
rfemur -50.8235 -6.16411 4.93388
rtibia 39.0501 -0 0
rfoot 25.8919 6.79372 0.22746
rtoes 10.7453 -0 0
lowerback 13.535 0.0906592 -7.8664
upperback -0.789582 -0.932581 2.6409
thorax -8.30534 -0.0342606 7.53422
lowerneck -1.48035 -6.71953 -9.99256
upperneck 8.02735 -9.09857 6.53085
head 3.42412 -4.58741 3.22418
lclavicle 5.07907e-14 -1.84565e-15 -3.19406e-31
lhumerus -15.0026 -60.4596 106.061
lradius 110.936 -0 0
lwrist 31.3647 0 0
lhand -28.8674 39.8111 0.00522801
lfingers 7.12502 -0 0
lthumb -2.2236 69.778 0.00515012
rclavicle 5.07907e-14 -1.84565e-15 -3.19406e-31
rhumerus 12.8327 28.5166 -69.1193
rradius 103.653 -0 0
rwrist -12.651 0 0
rhand 5.96957 -29.5207 -0.0259456
rfingers 7.12502 -0 0
rthumb 31.2931 -56.8553 -0.0217235
1128
root 0.493897 15.0316 -26.4054 -2.48508 20.3404 2.1445
lfemur -14.1936 2.69401 -19.3431
ltibia 62.3147 -0 0
lfoot -30.7201 22.573 -0.0468598
ltoes -21.2795 0 0
rfemur -50.9439 -6.12025 4.90589
rtibia 38.9554 -0 0
rfoot 26.0738 6.91411 0.171166
rtoes 10.8516 -0 0
lowerback 13.5325 0.0755349 -7.90041
upperback -0.787885 -0.95762 2.64563
thorax -8.30129 -0.0449096 7.56436
lowerneck -1.4607 -6.77654 -10.0411
upperneck 8.02704 -9.17843 6.57061
head 3.42298 -4.62674 3.24085
lclavicle 5.13215e-14 -1.78181e-15 -2.40442e-31
lhumerus -15.2151 -60.6511 106.373
lradius 111.126 -0 0
lwrist 31.5911 0 0
lhand -28.8453 39.8362 0.0039355
lfingers 7.12502 -0 0
lthumb -2.20231 69.8036 0.00387687
rclavicle 5.13215e-14 -1.78181e-15 -2.40442e-31
rhumerus 13.1281 28.5018 -69.0346
rradius 103.595 -0 0
rwrist -12.3478 0 0
rhand 6.0202 -29.5745 -0.0195306
rfingers 7.12502 -0 0
rthumb 31.3416 -56.9023 -0.0163525
1129
root 0.502407 15.032 -26.3619 -2.50737 20.5927 2.1491
lfemur -14.1075 2.64974 -19.456
ltibia 62.3855 -0 0
lfoot -30.8705 22.6149 -0.0313498
ltoes -21.3085 0 0
rfemur -51.0644 -6.07646 4.87782
rtibia 38.8606 -0 0
rfoot 26.2556 7.03433 0.114492
rtoes 10.9578 -0 0
lowerback 13.53 0.060409 -7.93442
upperback -0.786191 -0.98266 2.65035
thorax -8.29724 -0.0555608 7.5945
lowerneck -1.441 -6.83353 -10.0897
upperneck 8.02667 -9.25828 6.61037
head 3.42182 -4.66606 3.25753
lclavicle 5.18523e-14 -1.71797e-15 -1.60886e-31
lhumerus -15.431 -60.8419 106.689
lradius 111.316 -0 0
lwrist 31.8176 0 0
lhand -28.8233 39.8613 0.00263333
lfingers 7.12502 -0 0
lthumb -2.18102 69.8293 0.0025941
rclavicle 5.18523e-14 -1.71797e-15 -1.60886e-31
rhumerus 13.4235 28.4866 -68.95
rradius 103.537 -0 0
rwrist -12.0445 0 0
rhand 6.07082 -29.6284 -0.0130679
rfingers 7.12502 -0 0
rthumb 31.3902 -56.9494 -0.0109415
1130
root 0.510918 15.0323 -26.3183 -2.52968 20.845 2.1536
lfemur -14.0214 2.60564 -19.569
ltibia 62.4564 -0 0
lfoot -31.021 22.6568 -0.0157299
ltoes -21.3376 0 0
rfemur -51.1848 -6.03273 4.84966
rtibia 38.7659 -0 0
rfoot 26.4372 7.15436 0.0574359
rtoes 11.0641 -0 0
lowerback 13.5275 0.0452817 -7.96842
upperback -0.784498 -1.0077 2.65508
thorax -8.2932 -0.066214 7.62464
lowerneck -1.42125 -6.89051 -10.1383
upperneck 8.02624 -9.33814 6.65015
head 3.42066 -4.70538 3.27422
lclavicle 5.23832e-14 -1.65412e-15 -8.07388e-32
lhumerus -15.6503 -61.0322 107.008
lradius 111.507 -0 0
lwrist 32.044 0 0
lhand -28.8012 39.8864 0.0013215
lfingers 7.12502 -0 0
lthumb -2.15974 69.8549 0.00130181
rclavicle 5.23832e-14 -1.65412e-15 -8.07388e-32
rhumerus 13.7188 28.4711 -68.8654
rradius 103.479 -0 0
rwrist -11.7412 0 0
rhand 6.12145 -29.6822 -0.00655773
rfingers 7.12502 -0 0
rthumb 31.4387 -56.9964 -0.00549071
1131
root 0.519428 15.0327 -26.2748 357.448 21.0973 362.158
lfemur -13.9351 2.56171 -19.682
ltibia 62.5272 0 0
lfoot -31.1715 22.6986 0
ltoes -21.3666 0 0
rfemur -51.3053 -5.98905 4.82141
rtibia 38.6711 0 0
rfoot 26.6187 7.27421 0
rtoes 11.1703 0 0
lowerback 13.525 0.0301529 -8.00243
upperback -0.782808 -1.03274 2.6598
thorax -8.28917 -0.0768694 7.65478
lowerneck -1.40145 -6.94747 -10.1869
upperneck 8.02576 -9.41799 6.68994
head 3.41948 -4.7447 3.2909
lclavicle 5.2914e-14 -1.59028e-15 0
lhumerus -15.8732 -61.2219 107.331
lradius 111.697 0 0
lwrist 32.2705 0 0
lhand -28.7792 39.9115 0
lfingers 7.12502 0 0
lthumb -2.13845 69.8805 0
rclavicle 5.2914e-14 -1.59028e-15 0
rhumerus 14.014 28.4551 -68.781
rradius 103.421 0 0
rwrist -11.4379 0 0
rhand 6.17206 -29.736 0
rfingers 7.12502 0 0
rthumb 31.4873 -57.0435 0
1132
root 0.509216 15.0317 -26.1494 -2.48671 20.9109 2.09847
lfemur -14.3308 2.61405 -19.6664
ltibia 62.6715 -0 0
lfoot -31.0141 22.575 -0.0212111
ltoes -21.463 0 0
rfemur -51.0584 -5.92169 5.02054
rtibia 38.8646 -0 0
rfoot 26.1249 7.0261 0.151062
rtoes 10.9464 -0 0
lowerback 13.5354 0.0500815 -7.92437
upperback -0.803547 -0.992488 2.67018
thorax -8.32066 -0.0591983 7.61177
lowerneck -1.43199 -6.921 -10.1685
upperneck 7.98592 -9.37788 6.68245
head 3.41005 -4.72421 3.28941
lclavicle 5.23145e-14 -1.66082e-15 -4.53864e-32
lhumerus -15.0713 -60.9973 106.821
lradius 111.543 -0 0
lwrist 32.4639 0 0
lhand -28.8676 40.0791 -0.0161202
lfingers 7.12502 -0 0
lthumb -2.16079 68.5935 0.120178
rclavicle 5.23145e-14 -1.66082e-15 -4.53864e-32
rhumerus 13.8678 28.5708 -68.8293
rradius 103.524 -0 0
rwrist -11.6829 0 0
rhand 6.0145 -29.6533 -0.0141592
rfingers 7.12502 -0 0
rthumb 31.336 -56.979 -0.0105849
